<svg version="1.1" id="Layer_1" xmlns="http://www.w3.org/2000/svg" xmlns:xlink="http://www.w3.org/1999/xlink" x="0px" y="0px"
	 width="100%" viewBox="0 0 412 216" enable-background="new 0 0 412 216" xml:space="preserve">
<path fill="#FEFEFE" opacity="1.000000" stroke="none" 
	d="
M309.000000,217.000000 
	C206.000031,217.000000 103.500061,217.000000 1.000069,217.000000 
	C1.000046,145.000046 1.000046,73.000107 1.000023,1.000117 
	C138.333237,1.000078 275.666473,1.000078 412.999817,1.000039 
	C412.999878,72.999886 412.999878,144.999771 412.999939,216.999832 
	C378.500000,217.000000 344.000000,217.000000 309.000000,217.000000 
M289.377350,85.221817 
	C289.380951,84.158432 289.384552,83.095039 289.740356,81.443398 
	C289.188293,78.904297 288.636230,76.365196 288.078949,73.106277 
	C285.063843,65.113869 276.252411,59.957710 268.166077,61.959133 
	C265.379822,62.914127 262.593536,63.869122 259.207397,65.090561 
	C258.137451,66.059998 257.067474,67.029434 255.526016,68.422768 
	C254.764160,69.628548 254.002319,70.834335 252.688522,72.468796 
	C252.366089,73.574547 252.043640,74.680298 251.059616,76.157524 
	C248.621231,84.697380 251.777985,92.380051 260.123322,98.216187 
	C265.803497,102.188484 275.858459,101.748787 280.878296,97.096375 
	C282.301453,95.761169 283.724609,94.425957 285.740234,92.822044 
	C286.587585,91.300827 287.434937,89.779617 288.766937,88.110016 
	C288.888184,87.401550 289.009430,86.693085 289.377350,85.221817 
M255.945007,111.709839 
	C254.747681,111.731781 253.550339,111.753723 251.981064,111.217873 
	C250.312607,111.108749 248.644150,110.999626 246.487976,110.729683 
	C246.147720,110.708069 245.807449,110.686462 245.096893,110.088409 
	C244.044983,109.803505 242.993073,109.518600 241.236252,109.056374 
	C238.723068,107.275963 236.209869,105.495552 233.441742,103.041870 
	C230.258408,97.375076 227.075089,91.708282 223.849777,85.326485 
	C223.668289,84.889099 223.486816,84.451714 223.534515,83.386108 
	C223.081375,82.419159 222.628235,81.452209 222.298859,79.705986 
	C220.225510,70.791473 218.152176,61.876961 216.004013,52.198853 
	C212.995468,45.941231 209.986923,39.683609 206.634247,32.844257 
	C205.520355,31.855747 204.406448,30.867237 203.001297,29.243559 
	C199.334122,27.264395 195.666962,25.285229 191.151199,23.094927 
	C186.350266,22.718170 181.549332,22.341412 176.403610,21.937597 
	C180.331863,38.593071 183.933517,53.863777 187.761261,69.889259 
	C190.828247,77.627899 193.895218,85.366539 197.021713,93.803307 
	C198.521866,96.259903 200.022018,98.716499 201.771744,101.838852 
	C204.171600,104.563156 206.571457,107.287453 209.167023,110.664665 
	C210.828629,111.775665 212.490219,112.886665 214.222687,114.559486 
	C214.819489,114.913422 215.416306,115.267357 216.639359,115.975861 
	C217.752457,116.346207 218.865570,116.716553 220.398376,117.546791 
	C221.409363,117.780502 222.420349,118.014214 223.789948,118.767525 
	C224.521225,118.883972 225.252502,119.000420 226.676697,119.585564 
	C227.781418,119.656418 228.886139,119.727264 230.886414,120.026314 
	C234.256958,119.908424 237.627518,119.790543 241.800705,119.771980 
	C248.835648,117.471359 255.870605,115.170731 263.626465,112.850731 
	C265.293762,112.036263 266.961090,111.221802 268.628387,110.407333 
	C268.482208,109.988571 268.335999,109.569801 268.189819,109.151039 
	C264.346527,110.030479 260.503235,110.909920 255.945007,111.709839 
M216.469986,132.733521 
	C215.610550,132.765503 214.751129,132.797485 213.194351,132.404755 
	C211.846512,132.240463 210.498657,132.076172 208.737976,131.359848 
	C204.877380,129.090210 201.016785,126.820580 196.902145,123.955727 
	C193.716507,119.572891 190.530869,115.190063 187.228104,110.040436 
	C186.738464,108.645538 186.191467,107.267784 185.768585,105.852943 
	C183.190796,97.228188 180.641190,88.595016 178.152130,79.216606 
	C178.022156,78.479996 177.892181,77.743385 177.819611,76.292648 
	C177.490005,75.219307 177.160416,74.145958 176.902451,72.270477 
	C174.621704,64.171715 172.340942,56.072948 170.087341,47.224903 
	C167.435562,42.463703 164.783768,37.702503 162.037643,32.238201 
	C158.690750,29.174442 155.343872,26.110685 151.561417,22.515013 
	C149.038345,21.396057 146.515259,20.277102 143.368164,18.746712 
	C141.438843,18.442329 139.509506,18.137949 137.019913,17.252146 
	C131.409576,16.993465 125.799248,16.734787 119.687981,16.453009 
	C121.225204,20.674501 122.524078,23.499500 123.283913,26.462719 
	C125.894615,36.643990 128.316635,46.873650 130.727188,57.918907 
	C132.235733,64.277466 133.744278,70.636032 135.206985,77.646286 
	C135.561188,78.394150 135.915375,79.142014 136.150986,80.463692 
	C136.511368,81.086426 136.871750,81.709167 137.250092,83.169182 
	C139.677231,89.845604 142.104370,96.522018 144.724411,103.930588 
	C147.653198,109.363541 150.581985,114.796494 153.775482,120.876816 
	C156.308884,123.694275 158.842285,126.511742 161.578171,130.002335 
	C164.366699,132.342361 167.155212,134.682388 170.245041,137.642761 
	C172.991425,138.815079 175.737793,139.987396 178.953171,141.754318 
	C184.298080,142.854294 189.642975,143.954285 195.656036,145.352219 
	C199.762146,144.875061 203.868271,144.397903 208.822128,143.992188 
	C214.193115,142.576553 219.564087,141.160919 225.661514,139.660110 
	C230.434021,137.544891 235.206512,135.429672 239.979019,133.314453 
	C239.807358,132.901947 239.635681,132.489426 239.464020,132.076904 
	C232.612686,132.548126 225.761353,133.019348 218.276062,133.290695 
	C217.835403,133.256378 217.394760,133.222061 216.469986,132.733521 
M94.261322,176.619461 
	C92.073967,178.758759 90.115593,180.482269 87.443115,176.844498 
	C86.645569,175.758896 84.151321,175.649216 82.416351,175.585495 
	C79.736931,175.487076 77.028236,176.051208 74.357040,175.897736 
	C71.153923,175.713699 69.848206,176.735275 69.983925,180.100845 
	C70.205017,185.583847 70.104591,191.083221 70.017258,196.573746 
	C69.976944,199.107773 70.535744,200.738815 73.541405,200.737335 
	C76.552818,200.735870 77.116234,199.107483 77.032211,196.569855 
	C76.927650,193.412018 76.415077,190.068756 77.258987,187.146408 
	C77.849052,185.103119 80.417984,183.631287 82.103073,181.904205 
	C83.145943,183.650345 84.789886,185.297943 85.095901,187.164856 
	C85.600754,190.244888 85.386909,193.475006 85.205185,196.626251 
	C85.021072,199.818924 86.706360,200.638092 89.445091,200.719666 
	C92.541809,200.811890 92.917839,198.957260 92.876884,196.502945 
	C92.821404,193.177750 92.382317,189.708923 93.182945,186.576508 
	C93.652992,184.737427 96.209610,183.431641 97.827682,181.885986 
	C98.978447,183.562134 100.820755,185.121429 101.128090,186.940109 
	C101.675117,190.177200 101.394539,193.575104 101.268623,196.898499 
	C101.162758,199.692947 102.326759,200.762573 105.097351,200.752365 
	C107.854591,200.742203 109.032997,199.683823 108.931335,196.887238 
	C108.798409,193.230560 109.053230,189.556305 108.844116,185.906631 
	C108.356033,177.388260 103.234146,173.901733 94.261322,176.619461 
M257.186279,188.669571 
	C257.187134,190.668472 257.243195,192.669220 257.176056,194.665833 
	C257.071411,197.777328 256.771118,200.836349 261.426636,200.733246 
	C265.897980,200.634247 264.636292,197.395737 264.780243,194.971756 
	C264.957672,191.984451 264.406708,188.822693 265.233490,186.053726 
	C265.740234,184.356705 268.239929,183.254791 269.844635,181.885620 
	C270.965210,183.420258 272.821991,184.851532 273.054993,186.510803 
	C273.559845,190.106400 272.895050,193.869461 273.432770,197.455444 
	C273.619324,198.699493 275.857422,200.273788 277.322723,200.469879 
	C278.344330,200.606583 280.591156,198.710114 280.656616,197.623459 
	C280.925201,193.162994 280.994080,188.602432 280.349091,184.193893 
	C279.123444,175.816925 271.877594,172.941650 264.925293,177.630005 
	C263.899506,178.321747 261.525085,178.881302 261.174622,178.425537 
	C256.208191,171.966431 249.494507,178.754700 244.058563,176.150726 
	C243.900650,176.075089 242.119186,178.157639 242.081406,179.267502 
	C241.877472,185.257217 241.784653,191.269882 242.152374,197.243942 
	C242.227249,198.460419 244.439529,199.545303 245.666489,200.690857 
	C246.778503,199.439728 248.611298,198.312622 248.852417,196.911606 
	C249.353699,193.998764 249.020126,190.940765 249.013687,187.942444 
	C249.006790,184.737656 250.155731,182.130157 253.637985,181.974823 
	C257.751373,181.791306 257.018188,185.172287 257.186279,188.669571 
M19.378418,200.423691 
	C21.693758,200.506149 24.043200,200.878647 26.317411,200.611267 
	C31.201025,200.037109 35.183323,196.506012 35.524429,192.161057 
	C35.905155,187.311432 33.594360,183.936768 28.808559,182.390091 
	C26.919792,181.779678 24.989906,181.125534 23.302622,180.116791 
	C21.955519,179.311462 20.947802,177.938431 19.789446,176.817398 
	C21.249126,176.149765 22.655071,175.253128 24.187057,174.893661 
	C25.237349,174.647232 26.719677,174.782104 27.566942,175.376465 
	C31.821798,178.361374 32.946598,175.571930 34.076015,172.274323 
	C30.789841,168.588257 26.748905,167.799133 22.247932,167.976028 
	C15.829232,168.228287 11.924223,171.208160 11.287030,176.624252 
	C10.746371,181.219803 14.399250,185.310043 20.165012,187.006119 
	C22.875656,187.803482 25.428190,189.138336 28.380978,190.366287 
	C25.476162,195.313782 22.299238,194.605377 19.004944,192.843109 
	C13.678457,189.993729 13.181178,190.118896 10.286907,196.030670 
	C13.056887,197.403214 15.835235,198.779907 19.378418,200.423691 
M199.386703,175.629044 
	C201.014786,176.673172 202.642883,177.717300 204.229523,178.734848 
	C209.052444,173.297882 208.718231,171.784195 202.351822,169.107224 
	C193.993713,165.592804 184.359497,169.048401 180.194656,177.054565 
	C176.300171,184.541016 179.282913,194.553299 186.645218,198.707352 
	C193.981735,202.846878 203.797775,200.847061 207.859955,194.329803 
	C206.004257,190.893234 204.123642,189.619095 200.062607,192.248978 
	C197.892349,193.654404 193.904816,193.670197 191.328979,192.716110 
	C186.957611,191.097000 185.192123,186.043320 186.485474,181.925583 
	C188.213135,176.425140 191.766861,174.499756 199.386703,175.629044 
M300.771515,194.620346 
	C297.323425,195.438629 294.503021,194.854172 292.116180,190.720810 
	C298.502838,190.720810 303.943298,190.720810 310.350739,190.720810 
	C309.780090,187.319260 309.977234,184.135849 308.700073,181.737579 
	C305.478333,175.687912 297.384369,173.614578 291.903900,176.877319 
	C285.601624,180.629318 283.454224,187.784561 286.729248,194.119736 
	C289.841034,200.139252 297.593170,202.657593 303.789825,199.396729 
	C305.094086,198.710403 306.891174,196.599030 306.615814,195.726791 
	C305.866730,193.353638 303.783569,192.663818 300.771515,194.620346 
M114.159424,184.748459 
	C112.387939,192.779739 117.027939,199.683441 124.894417,200.720688 
	C132.315414,201.699219 139.019043,196.417694 139.592056,189.141022 
	C140.042862,183.416229 136.051483,177.405380 130.939163,176.110153 
	C123.167107,174.141068 117.987389,176.606094 114.159424,184.748459 
M218.258514,199.478500 
	C219.204086,199.780899 220.132843,200.158951 221.097946,200.373535 
	C228.038834,201.916992 234.557709,198.289673 236.423477,191.878235 
	C238.302048,185.422791 235.063538,178.598831 229.028488,176.296051 
	C223.153503,174.054367 215.803757,176.630096 213.010727,181.557602 
	C209.686813,187.421753 210.751923,195.593964 218.258514,199.478500 
M374.311066,180.999435 
	C373.774078,182.556381 373.107941,184.082123 372.722961,185.675812 
	C371.230316,191.854797 374.439484,197.690567 380.470154,199.928223 
	C386.451996,202.147766 393.602722,199.729736 396.543488,194.492996 
	C399.538330,189.159973 398.085480,182.209534 393.200775,178.501526 
	C387.092041,173.864365 382.070404,174.364410 374.311066,180.999435 
M41.271164,180.978210 
	C40.746563,182.549820 40.101078,184.092667 39.718864,185.698181 
	C38.279221,191.745605 41.316082,197.496460 47.091545,199.826065 
	C53.095581,202.247849 60.721836,199.679153 63.647442,194.249649 
	C66.486656,188.980484 65.056961,182.325928 60.278633,178.569427 
	C54.283607,173.856445 49.239868,174.332703 41.271164,180.978210 
M154.589081,192.140533 
	C154.060577,193.113419 153.497620,194.930344 153.009628,194.910416 
	C151.081955,194.831711 149.192398,193.942215 147.259583,193.822128 
	C146.062668,193.747787 144.813293,194.517822 143.587479,194.908813 
	C144.020905,196.080887 144.117233,197.871674 144.943863,198.322052 
	C149.451096,200.777679 154.388107,202.428787 159.010391,199.126465 
	C160.859924,197.805099 162.606476,194.870575 162.526855,192.740341 
	C162.450607,190.700668 160.273972,188.335434 158.421097,186.872452 
	C156.291290,185.190826 153.503067,184.343140 151.000839,183.133209 
	C151.159821,182.631958 151.318802,182.130707 151.477783,181.629456 
	C154.322952,181.911026 157.168106,182.192612 160.066895,182.479492 
	C162.559677,178.477509 162.206741,177.087479 157.725906,176.149246 
	C155.234131,175.627518 152.034958,175.096039 150.088043,176.206116 
	C147.577423,177.637589 145.007690,180.434769 144.264771,183.138702 
	C143.253357,186.819839 146.347336,189.026306 149.767807,190.172684 
	C151.177734,190.645248 152.592819,191.102417 154.589081,192.140533 
M343.178619,182.334366 
	C344.946106,182.435684 346.997559,181.994980 348.426117,182.743301 
	C352.213531,184.727219 353.948578,183.489929 354.718231,179.739761 
	C348.774811,174.006897 342.052734,173.784607 336.154541,179.074753 
	C331.359741,183.375275 330.837128,190.114594 334.869385,195.647614 
	C338.776276,201.008621 346.428711,202.536758 352.110748,198.729401 
	C353.268738,197.953476 354.263062,195.560349 353.941284,194.256104 
	C353.396545,192.048355 351.739502,191.491501 349.347443,193.058334 
	C346.081299,195.197754 342.541595,195.048416 340.151154,191.546555 
	C337.686829,187.936462 339.263611,185.013077 343.178619,182.334366 
M321.826263,198.888916 
	C321.859833,196.069168 321.806061,193.244995 321.949005,190.430817 
	C322.127960,186.906631 322.443359,183.663208 326.791229,182.194702 
	C328.133392,181.741379 328.606781,178.715744 329.477936,176.867905 
	C328.954773,176.506866 328.431580,176.145828 327.908417,175.784775 
	C326.024384,176.524628 324.140381,177.264465 322.256348,178.004303 
	C322.340851,177.645493 322.425354,177.286697 322.509857,176.927902 
	C320.245941,176.545135 317.982025,176.162369 315.263641,175.702774 
	C315.263641,184.333389 315.263641,192.195892 315.263641,200.945847 
	C317.603577,200.482666 319.571045,200.093201 321.826263,198.888916 
M367.049652,184.551605 
	C367.046661,182.724121 367.460358,180.755890 366.906067,179.114609 
	C366.478851,177.849762 364.992828,176.454269 363.698303,176.078186 
	C361.415375,175.414948 359.988464,176.494339 360.038055,179.231354 
	C360.146393,185.210281 359.871857,191.204529 360.232025,197.163620 
	C360.307007,198.404419 362.452362,199.520096 363.643616,200.693420 
	C364.778015,199.461868 366.729950,198.327850 366.890747,196.980148 
	C367.340271,193.212524 367.048798,189.356491 367.049652,184.551605 
M366.275208,172.957062 
	C366.360596,171.073959 366.890350,169.037918 366.319885,167.380600 
	C366.080750,166.685944 363.151215,166.133072 362.091644,166.707932 
	C360.826538,167.394272 359.317596,169.554291 359.563477,170.731506 
	C360.224243,173.895172 362.708008,174.667603 366.275208,172.957062 
M241.522949,131.389313 
	C241.522949,131.389313 241.613007,131.512131 241.522949,131.389313 
z"/>
<path fill="#278EBF" opacity="1.000000" stroke="none" 
	d="
M170.060196,47.974186 
	C172.340942,56.072948 174.621704,64.171715 176.631775,72.894424 
	C176.828140,74.681183 177.295166,75.843979 177.762207,77.006775 
	C177.892181,77.743385 178.022156,78.479996 177.817001,79.835754 
	C176.990906,82.194916 176.169998,83.914711 176.061874,85.678192 
	C175.292831,98.222885 174.701019,110.778328 173.980560,123.326195 
	C173.763046,127.114403 173.497742,130.920898 172.849243,134.648544 
	C172.687180,135.580124 170.954529,136.238480 169.943741,137.022415 
	C167.155212,134.682388 164.366699,132.342361 161.852631,129.429474 
	C163.082825,120.561142 164.378906,112.287750 164.918884,103.965302 
	C165.859482,89.468460 166.152618,74.929306 167.117279,60.434517 
	C167.396835,56.234386 169.041397,52.125111 170.060196,47.974186 
z"/>
<path fill="#2483B4" opacity="1.000000" stroke="none" 
	d="
M151.996994,23.046926 
	C155.343872,26.110685 158.690750,29.174442 161.763794,32.820564 
	C160.996002,34.784271 160.142502,36.145119 160.062439,37.550037 
	C158.978745,56.567696 158.003159,75.591515 156.999268,94.613724 
	C156.658768,101.065536 156.486923,107.533638 155.873840,113.959541 
	C155.669144,116.105133 154.330872,118.142563 153.510788,120.229439 
	C150.581985,114.796494 147.653198,109.363541 145.037552,103.469055 
	C146.233902,100.503471 147.684067,98.046013 147.894318,95.486679 
	C148.532013,87.724464 148.608429,79.918198 149.051468,72.137505 
	C149.983353,55.771133 151.009521,39.410130 151.996994,23.046926 
z"/>
<path fill="#2487B9" opacity="1.000000" stroke="none" 
	d="
M153.643127,120.553131 
	C154.330872,118.142563 155.669144,116.105133 155.873840,113.959541 
	C156.486923,107.533638 156.658768,101.065536 156.999268,94.613724 
	C158.003159,75.591515 158.978745,56.567696 160.062439,37.550037 
	C160.142502,36.145119 160.996002,34.784271 161.810959,33.172119 
	C164.783768,37.702503 167.435562,42.463703 170.073761,47.599545 
	C169.041397,52.125111 167.396835,56.234386 167.117279,60.434517 
	C166.152618,74.929306 165.859482,89.468460 164.918884,103.965302 
	C164.378906,112.287750 163.082825,120.561142 161.751389,129.092911 
	C158.842285,126.511742 156.308884,123.694275 153.643127,120.553131 
z"/>
<path fill="#247DAE" opacity="1.000000" stroke="none" 
	d="
M151.779205,22.780968 
	C151.009521,39.410130 149.983353,55.771133 149.051468,72.137505 
	C148.608429,79.918198 148.532013,87.724464 147.894318,95.486679 
	C147.684067,98.046013 146.233902,100.503471 144.941101,103.102974 
	C142.104370,96.522018 139.677231,89.845604 137.695251,82.628693 
	C138.750122,81.219765 139.835648,80.383759 139.897369,79.478004 
	C140.683868,67.933540 141.262863,56.375107 142.020645,44.828491 
	C142.582611,36.265461 143.328339,27.714491 143.992188,19.158146 
	C146.515259,20.277102 149.038345,21.396057 151.779205,22.780968 
z"/>
<path fill="#A4A6A9" opacity="1.000000" stroke="none" 
	d="
M94.601898,176.445877 
	C103.234146,173.901733 108.356033,177.388260 108.844116,185.906631 
	C109.053230,189.556305 108.798409,193.230560 108.931335,196.887238 
	C109.032997,199.683823 107.854591,200.742203 105.097351,200.752365 
	C102.326759,200.762573 101.162758,199.692947 101.268623,196.898499 
	C101.394539,193.575104 101.675117,190.177200 101.128090,186.940109 
	C100.820755,185.121429 98.978447,183.562134 97.827682,181.885986 
	C96.209610,183.431641 93.652992,184.737427 93.182945,186.576508 
	C92.382317,189.708923 92.821404,193.177750 92.876884,196.502945 
	C92.917839,198.957260 92.541809,200.811890 89.445091,200.719666 
	C86.706360,200.638092 85.021072,199.818924 85.205185,196.626251 
	C85.386909,193.475006 85.600754,190.244888 85.095901,187.164856 
	C84.789886,185.297943 83.145943,183.650345 82.103073,181.904205 
	C80.417984,183.631287 77.849052,185.103119 77.258987,187.146408 
	C76.415077,190.068756 76.927650,193.412018 77.032211,196.569855 
	C77.116234,199.107483 76.552818,200.735870 73.541405,200.737335 
	C70.535744,200.738815 69.976944,199.107773 70.017258,196.573746 
	C70.104591,191.083221 70.205017,185.583847 69.983925,180.100845 
	C69.848206,176.735275 71.153923,175.713699 74.357040,175.897736 
	C77.028236,176.051208 79.736931,175.487076 82.416351,175.585495 
	C84.151321,175.649216 86.645569,175.758896 87.443115,176.844498 
	C90.115593,180.482269 92.073967,178.758759 94.601898,176.445877 
z"/>
<path fill="#A4A6A9" opacity="1.000000" stroke="none" 
	d="
M257.184570,188.204056 
	C257.018188,185.172287 257.751373,181.791306 253.637985,181.974823 
	C250.155731,182.130157 249.006790,184.737656 249.013687,187.942444 
	C249.020126,190.940765 249.353699,193.998764 248.852417,196.911606 
	C248.611298,198.312622 246.778503,199.439728 245.666489,200.690857 
	C244.439529,199.545303 242.227249,198.460419 242.152374,197.243942 
	C241.784653,191.269882 241.877472,185.257217 242.081406,179.267502 
	C242.119186,178.157639 243.900650,176.075089 244.058563,176.150726 
	C249.494507,178.754700 256.208191,171.966431 261.174622,178.425537 
	C261.525085,178.881302 263.899506,178.321747 264.925293,177.630005 
	C271.877594,172.941650 279.123444,175.816925 280.349091,184.193893 
	C280.994080,188.602432 280.925201,193.162994 280.656616,197.623459 
	C280.591156,198.710114 278.344330,200.606583 277.322723,200.469879 
	C275.857422,200.273788 273.619324,198.699493 273.432770,197.455444 
	C272.895050,193.869461 273.559845,190.106400 273.054993,186.510803 
	C272.821991,184.851532 270.965210,183.420258 269.844635,181.885620 
	C268.239929,183.254791 265.740234,184.356705 265.233490,186.053726 
	C264.406708,188.822693 264.957672,191.984451 264.780243,194.971756 
	C264.636292,197.395737 265.897980,200.634247 261.426636,200.733246 
	C256.771118,200.836349 257.071411,197.777328 257.176056,194.665833 
	C257.243195,192.669220 257.187134,190.668472 257.184570,188.204056 
z"/>
<path fill="#2A96C6" opacity="1.000000" stroke="none" 
	d="
M170.094391,137.332581 
	C170.954529,136.238480 172.687180,135.580124 172.849243,134.648544 
	C173.497742,130.920898 173.763046,127.114403 173.980560,123.326195 
	C174.701019,110.778328 175.292831,98.222885 176.061874,85.678192 
	C176.169998,83.914711 176.990906,82.194916 177.782028,80.209770 
	C180.641190,88.595016 183.190796,97.228188 185.768585,105.852943 
	C186.191467,107.267784 186.738464,108.645538 186.950714,110.666214 
	C185.548889,121.363220 184.424454,131.434448 183.272598,141.751282 
	C181.674805,141.553894 180.079498,141.356812 178.484177,141.159714 
	C175.737793,139.987396 172.991425,138.815079 170.094391,137.332581 
z"/>
<path fill="#268ABB" opacity="1.000000" stroke="none" 
	d="
M208.971298,110.011749 
	C206.571457,107.287453 204.171600,104.563156 202.072601,101.407234 
	C202.912262,100.062279 203.866974,99.175331 203.926849,98.231613 
	C204.692688,86.162025 205.316422,74.083504 206.015823,62.009548 
	C206.120651,60.200066 206.575363,58.405594 206.615723,56.598537 
	C206.788208,48.875507 206.866013,41.150364 206.978363,33.425987 
	C209.986923,39.683609 212.995468,45.941231 215.738434,52.844269 
	C214.984955,56.248524 214.208679,58.991673 214.057602,61.768826 
	C213.283066,76.007294 212.771683,90.260948 211.877274,104.490997 
	C211.758255,106.384644 209.980743,108.174065 208.971298,110.011749 
z"/>
<path fill="#A3A5A8" opacity="1.000000" stroke="none" 
	d="
M18.996000,200.290131 
	C15.835235,198.779907 13.056887,197.403214 10.286907,196.030670 
	C13.181178,190.118896 13.678457,189.993729 19.004944,192.843109 
	C22.299238,194.605377 25.476162,195.313782 28.380978,190.366287 
	C25.428190,189.138336 22.875656,187.803482 20.165012,187.006119 
	C14.399250,185.310043 10.746371,181.219803 11.287030,176.624252 
	C11.924223,171.208160 15.829232,168.228287 22.247932,167.976028 
	C26.748905,167.799133 30.789841,168.588257 34.076015,172.274323 
	C32.946598,175.571930 31.821798,178.361374 27.566942,175.376465 
	C26.719677,174.782104 25.237349,174.647232 24.187057,174.893661 
	C22.655071,175.253128 21.249126,176.149765 19.789444,176.817383 
	C20.947802,177.938431 21.955519,179.311462 23.302622,180.116791 
	C24.989906,181.125534 26.919792,181.779678 28.808559,182.390091 
	C33.594360,183.936768 35.905155,187.311432 35.524429,192.161057 
	C35.183323,196.506012 31.201025,200.037109 26.317411,200.611267 
	C24.043200,200.878647 21.693758,200.506149 18.996000,200.290131 
z"/>
<path fill="#2276A8" opacity="1.000000" stroke="none" 
	d="
M143.680176,18.952431 
	C143.328339,27.714491 142.582611,36.265461 142.020645,44.828491 
	C141.262863,56.375107 140.683868,67.933540 139.897369,79.478004 
	C139.835648,80.383759 138.750122,81.219765 137.686279,82.210052 
	C136.871750,81.709167 136.511368,81.086426 136.418533,79.970490 
	C136.208328,78.649727 135.730576,77.822159 135.252808,76.994591 
	C133.744278,70.636032 132.235733,64.277466 131.085876,57.264214 
	C131.962128,54.714066 132.816330,52.839920 132.937897,50.919399 
	C133.418289,43.330105 133.196381,35.661991 134.217194,28.156710 
	C134.682327,24.736952 132.736420,19.996611 137.580185,17.833567 
	C139.509506,18.137949 141.438843,18.442329 143.680176,18.952431 
z"/>
<path fill="#247DAE" opacity="1.000000" stroke="none" 
	d="
M196.962204,93.105179 
	C193.895218,85.366539 190.828247,77.627899 188.061279,69.431259 
	C189.241013,66.151230 190.648010,63.375496 190.900696,60.498394 
	C191.632507,52.165478 192.004959,43.795582 192.305344,35.432545 
	C192.450226,31.399246 192.116684,27.348761 191.999786,23.306061 
	C195.666962,25.285229 199.334122,27.264395 202.750961,29.647621 
	C201.667175,32.939018 200.338745,35.784351 200.089523,38.721264 
	C199.207687,49.113537 198.648621,59.534496 198.057526,69.949715 
	C197.619720,77.664070 197.322220,85.386398 196.962204,93.105179 
z"/>
<path fill="#2483B4" opacity="1.000000" stroke="none" 
	d="
M196.991974,93.454239 
	C197.322220,85.386398 197.619720,77.664070 198.057526,69.949715 
	C198.648621,59.534496 199.207687,49.113537 200.089523,38.721264 
	C200.338745,35.784351 201.667175,32.939018 202.896591,29.965206 
	C204.406448,30.867237 205.520355,31.855747 206.806305,33.135124 
	C206.866013,41.150364 206.788208,48.875507 206.615723,56.598537 
	C206.575363,58.405594 206.120651,60.200066 206.015823,62.009548 
	C205.316422,74.083504 204.692688,86.162025 203.926849,98.231613 
	C203.866974,99.175331 202.912262,100.062279 201.947815,101.074356 
	C200.022018,98.716499 198.521866,96.259903 196.991974,93.454239 
z"/>
<path fill="#A3A4A7" opacity="1.000000" stroke="none" 
	d="
M199.018692,175.481812 
	C191.766861,174.499756 188.213135,176.425140 186.485474,181.925583 
	C185.192123,186.043320 186.957611,191.097000 191.328979,192.716110 
	C193.904816,193.670197 197.892349,193.654404 200.062607,192.248978 
	C204.123642,189.619095 206.004257,190.893234 207.859955,194.329803 
	C203.797775,200.847061 193.981735,202.846878 186.645218,198.707352 
	C179.282913,194.553299 176.300171,184.541016 180.194656,177.054565 
	C184.359497,169.048401 193.993713,165.592804 202.351822,169.107224 
	C208.718231,171.784195 209.052444,173.297882 204.229523,178.734848 
	C202.642883,177.717300 201.014786,176.673172 199.018692,175.481812 
z"/>
<path fill="#2891C2" opacity="1.000000" stroke="none" 
	d="
M209.069153,110.338211 
	C209.980743,108.174065 211.758255,106.384644 211.877274,104.490997 
	C212.771683,90.260948 213.283066,76.007294 214.057602,61.768826 
	C214.208679,58.991673 214.984955,56.248524 215.775848,53.226067 
	C218.152176,61.876961 220.225510,70.791473 222.186859,80.451012 
	C222.485016,82.135468 222.895172,83.074898 223.305328,84.014328 
	C223.486816,84.451714 223.668289,84.889099 223.586258,85.925293 
	C222.897293,87.582321 222.183365,88.616226 222.091797,89.702576 
	C221.322815,98.825233 220.667908,107.957520 219.978668,117.086899 
	C218.865570,116.716553 217.752457,116.346207 216.271835,115.524933 
	C215.320145,114.715225 214.735992,114.356445 214.151825,113.997665 
	C212.490219,112.886665 210.828629,111.775665 209.069153,110.338211 
z"/>
<path fill="#2476A7" opacity="1.000000" stroke="none" 
	d="
M191.575500,23.200493 
	C192.116684,27.348761 192.450226,31.399246 192.305344,35.432545 
	C192.004959,43.795582 191.632507,52.165478 190.900696,60.498394 
	C190.648010,63.375496 189.241013,66.151230 187.948242,69.053879 
	C183.933517,53.863777 180.331863,38.593071 176.403610,21.937597 
	C181.549332,22.341412 186.350266,22.718170 191.575500,23.200493 
z"/>
<path fill="#A4A6A9" opacity="1.000000" stroke="none" 
	d="
M301.121338,194.466919 
	C303.783569,192.663818 305.866730,193.353638 306.615814,195.726791 
	C306.891174,196.599030 305.094086,198.710403 303.789825,199.396729 
	C297.593170,202.657593 289.841034,200.139252 286.729248,194.119736 
	C283.454224,187.784561 285.601624,180.629318 291.903900,176.877319 
	C297.384369,173.614578 305.478333,175.687912 308.700073,181.737579 
	C309.977234,184.135849 309.780090,187.319260 310.350739,190.720810 
	C303.943298,190.720810 298.502838,190.720810 292.116180,190.720810 
	C294.503021,194.854172 297.323425,195.438629 301.121338,194.466919 
M294.315826,185.829102 
	C297.115662,185.829102 299.915527,185.829102 302.715363,185.829102 
	C302.848633,185.190872 302.981873,184.552643 303.115143,183.914429 
	C301.548492,183.010056 299.949158,181.320511 298.422791,181.384064 
	C296.092316,181.481079 292.327667,181.207718 294.315826,185.829102 
z"/>
<path fill="#A3A5A8" opacity="1.000000" stroke="none" 
	d="
M114.246613,184.380554 
	C117.987389,176.606094 123.167107,174.141068 130.939163,176.110153 
	C136.051483,177.405380 140.042862,183.416229 139.592056,189.141022 
	C139.019043,196.417694 132.315414,201.699219 124.894417,200.720688 
	C117.027939,199.683441 112.387939,192.779739 114.246613,184.380554 
M121.098930,190.428299 
	C122.372467,193.126480 124.058701,195.836258 127.413269,194.706482 
	C129.263641,194.083282 131.559982,191.997665 131.864075,190.258194 
	C132.266022,187.959000 131.578644,184.764084 130.088104,183.078415 
	C129.031586,181.883591 124.967270,181.578079 123.856941,182.609802 
	C122.125977,184.218216 121.761925,187.297714 121.098930,190.428299 
z"/>
<path fill="#A3A5A8" opacity="1.000000" stroke="none" 
	d="
M217.924759,199.282639 
	C210.751923,195.593964 209.686813,187.421753 213.010727,181.557602 
	C215.803757,176.630096 223.153503,174.054367 229.028488,176.296051 
	C235.063538,178.598831 238.302048,185.422791 236.423477,191.878235 
	C234.557709,198.289673 228.038834,201.916992 221.097946,200.373535 
	C220.132843,200.158951 219.204086,199.780899 217.924759,199.282639 
M228.207443,183.224762 
	C227.634674,182.898560 227.095337,182.477341 226.483536,182.262100 
	C223.263336,181.129150 219.973343,181.756638 218.973709,184.895386 
	C218.205444,187.307709 218.765350,190.795883 220.095917,192.973999 
	C220.869370,194.240158 224.632370,194.716064 226.512955,194.044098 
	C229.934296,192.821609 230.456833,189.549759 229.542755,186.174332 
	C229.327698,185.380249 229.004181,184.615555 228.207443,183.224762 
z"/>
<path fill="#A3A5A8" opacity="1.000000" stroke="none" 
	d="
M374.496521,180.672531 
	C382.070404,174.364410 387.092041,173.864365 393.200775,178.501526 
	C398.085480,182.209534 399.538330,189.159973 396.543488,194.492996 
	C393.602722,199.729736 386.451996,202.147766 380.470154,199.928223 
	C374.439484,197.690567 371.230316,191.854797 372.722961,185.675812 
	C373.107941,184.082123 373.774078,182.556381 374.496521,180.672531 
M390.894958,189.987228 
	C391.275726,186.654861 391.066010,183.451660 387.303040,182.189484 
	C384.127930,181.124481 381.401062,181.893005 379.864105,185.245483 
	C378.284546,188.690781 379.410217,192.853165 382.648651,194.265900 
	C386.404572,195.904388 389.045837,194.377518 390.894958,189.987228 
z"/>
<path fill="#A3A4A7" opacity="1.000000" stroke="none" 
	d="
M41.461349,180.653290 
	C49.239868,174.332703 54.283607,173.856445 60.278633,178.569427 
	C65.056961,182.325928 66.486656,188.980484 63.647442,194.249649 
	C60.721836,199.679153 53.095581,202.247849 47.091545,199.826065 
	C41.316082,197.496460 38.279221,191.745605 39.718864,185.698181 
	C40.101078,184.092667 40.746563,182.549820 41.461349,180.653290 
M48.013210,183.373825 
	C44.998451,186.699432 45.182819,190.404419 48.318535,193.024536 
	C49.847458,194.302063 53.573364,194.596466 55.325676,193.605133 
	C58.601509,191.751953 58.778530,188.096512 57.075039,184.792328 
	C55.109531,180.979919 51.992336,181.151871 48.013210,183.373825 
z"/>
<path fill="#2476A7" opacity="1.000000" stroke="none" 
	d="
M137.300049,17.542856 
	C132.736420,19.996611 134.682327,24.736952 134.217194,28.156710 
	C133.196381,35.661991 133.418289,43.330105 132.937897,50.919399 
	C132.816330,52.839920 131.962128,54.714066 131.127563,56.847191 
	C128.316635,46.873650 125.894615,36.643990 123.283913,26.462719 
	C122.524078,23.499500 121.225204,20.674501 119.687981,16.453009 
	C125.799248,16.734787 131.409576,16.993465 137.300049,17.542856 
z"/>
<path fill="#A4A6A9" opacity="1.000000" stroke="none" 
	d="
M154.297333,191.853561 
	C152.592819,191.102417 151.177734,190.645248 149.767807,190.172684 
	C146.347336,189.026306 143.253357,186.819839 144.264771,183.138702 
	C145.007690,180.434769 147.577423,177.637589 150.088043,176.206116 
	C152.034958,175.096039 155.234131,175.627518 157.725906,176.149246 
	C162.206741,177.087479 162.559677,178.477509 160.066895,182.479492 
	C157.168106,182.192612 154.322952,181.911026 151.477783,181.629456 
	C151.318802,182.130707 151.159821,182.631958 151.000839,183.133209 
	C153.503067,184.343140 156.291290,185.190826 158.421097,186.872452 
	C160.273972,188.335434 162.450607,190.700668 162.526855,192.740341 
	C162.606476,194.870575 160.859924,197.805099 159.010391,199.126465 
	C154.388107,202.428787 149.451096,200.777679 144.943863,198.322052 
	C144.117233,197.871674 144.020905,196.080887 143.587479,194.908813 
	C144.813293,194.517822 146.062668,193.747787 147.259583,193.822128 
	C149.192398,193.942215 151.081955,194.831711 153.009628,194.910416 
	C153.497620,194.930344 154.060577,193.113419 154.297333,191.853561 
z"/>
<path fill="#2C9ECE" opacity="1.000000" stroke="none" 
	d="
M178.718674,141.457016 
	C180.079498,141.356812 181.674805,141.553894 183.272598,141.751282 
	C184.424454,131.434448 185.548889,121.363220 187.009277,111.049622 
	C190.530869,115.190063 193.716507,119.572891 196.978302,124.710510 
	C196.365601,131.994949 195.676743,138.524612 194.987885,145.054276 
	C189.642975,143.954285 184.298080,142.854294 178.718674,141.457016 
z"/>
<path fill="#A4A6A9" opacity="1.000000" stroke="none" 
	d="
M342.824615,182.515182 
	C339.263611,185.013077 337.686829,187.936462 340.151154,191.546555 
	C342.541595,195.048416 346.081299,195.197754 349.347443,193.058334 
	C351.739502,191.491501 353.396545,192.048355 353.941284,194.256104 
	C354.263062,195.560349 353.268738,197.953476 352.110748,198.729401 
	C346.428711,202.536758 338.776276,201.008621 334.869385,195.647614 
	C330.837128,190.114594 331.359741,183.375275 336.154541,179.074753 
	C342.052734,173.784607 348.774811,174.006897 354.718231,179.739761 
	C353.948578,183.489929 352.213531,184.727219 348.426117,182.743301 
	C346.997559,181.994980 344.946106,182.435684 342.824615,182.515182 
z"/>
<path fill="#2D9CCB" opacity="1.000000" stroke="none" 
	d="
M220.188507,117.316849 
	C220.667908,107.957520 221.322815,98.825233 222.091797,89.702576 
	C222.183365,88.616226 222.897293,87.582321 223.607254,86.282791 
	C227.075089,91.708282 230.258408,97.375076 233.119873,103.493828 
	C232.219818,104.653397 231.216415,105.314552 231.133209,106.076233 
	C230.634888,110.637352 230.348373,115.221619 229.990860,119.798111 
	C228.886139,119.727264 227.781418,119.656418 226.182678,119.103210 
	C224.936203,118.496544 224.183777,118.372238 223.431335,118.247940 
	C222.420349,118.014214 221.409363,117.780502 220.188507,117.316849 
z"/>
<path fill="#C4C4C6" opacity="1.000000" stroke="none" 
	d="
M269.002563,61.943401 
	C276.252411,59.957710 285.063843,65.113869 287.798309,73.690414 
	C287.372101,74.569031 287.177460,74.849426 287.088196,75.160103 
	C285.526520,80.597496 281.621826,83.278625 276.287933,83.932198 
	C271.341553,84.538269 268.188324,81.604660 265.900299,77.701530 
	C263.080627,72.891502 264.341461,68.565529 267.836609,64.578224 
	C268.440826,63.888920 268.624603,62.831036 269.002563,61.943401 
M283.011688,73.269684 
	C283.058594,69.151390 280.632263,66.469780 276.995819,66.152985 
	C274.737122,65.956223 271.080963,67.426552 270.226715,69.197586 
	C269.207092,71.311462 269.656891,75.094055 270.992249,77.178764 
	C273.561462,81.189575 278.877411,79.592331 283.011688,73.269684 
z"/>
<path fill="#78787A" opacity="1.000000" stroke="none" 
	d="
M268.584320,61.951267 
	C268.624603,62.831036 268.440826,63.888920 267.836609,64.578224 
	C264.341461,68.565529 263.080627,72.891502 265.900299,77.701530 
	C268.188324,81.604660 271.341553,84.538269 276.287933,83.932198 
	C281.621826,83.278625 285.526520,80.597496 287.088196,75.160103 
	C287.177460,74.849426 287.372101,74.569031 287.800903,74.050323 
	C288.636230,76.365196 289.188293,78.904297 289.231537,81.864052 
	C285.478607,84.504929 282.234528,86.725159 278.549469,88.942169 
	C275.486908,88.889389 272.865326,88.839821 270.145386,88.469620 
	C268.360870,87.106262 266.674652,86.063515 264.782898,84.892685 
	C264.320435,84.559464 264.119598,84.309296 263.974915,83.650238 
	C260.192291,79.104904 259.551514,74.114670 260.112457,68.756912 
	C260.247101,67.470734 259.921295,66.136345 259.807251,64.824120 
	C262.593536,63.869122 265.379822,62.914127 268.584320,61.951267 
z"/>
<path fill="#262628" opacity="1.000000" stroke="none" 
	d="
M270.243713,88.790253 
	C272.865326,88.839821 275.486908,88.889389 278.744873,89.210678 
	C282.225677,88.666428 285.070129,87.850441 287.965057,87.352890 
	C288.104462,87.867012 288.193390,88.062706 288.282288,88.258400 
	C287.434937,89.779617 286.587585,91.300827 285.045532,92.941574 
	C273.996613,96.552391 265.451508,94.948021 259.576477,86.932838 
	C256.471344,82.696548 255.290237,77.049973 253.240463,72.040115 
	C254.002319,70.834335 254.764160,69.628548 256.150665,68.297531 
	C257.181854,69.994881 257.600037,71.814964 257.992462,73.640594 
	C258.874115,77.742157 258.646393,82.478592 263.974854,84.014091 
	C264.119598,84.309296 264.320435,84.559464 264.810699,85.245132 
	C266.777252,86.747200 268.510498,87.768730 270.243713,88.790253 
z"/>
<path fill="#A3A4A7" opacity="1.000000" stroke="none" 
	d="
M321.682404,199.296326 
	C319.571045,200.093201 317.603577,200.482666 315.263641,200.945847 
	C315.263641,192.195892 315.263641,184.333389 315.263641,175.702774 
	C317.982025,176.162369 320.245941,176.545135 322.509857,176.927902 
	C322.425354,177.286697 322.340851,177.645493 322.256348,178.004303 
	C324.140381,177.264465 326.024384,176.524628 327.908417,175.784775 
	C328.431580,176.145828 328.954773,176.506866 329.477936,176.867905 
	C328.606781,178.715744 328.133392,181.741379 326.791229,182.194702 
	C322.443359,183.663208 322.127960,186.906631 321.949005,190.430817 
	C321.806061,193.244995 321.859833,196.069168 321.682404,199.296326 
z"/>
<path fill="#2FA6D6" opacity="1.000000" stroke="none" 
	d="
M195.321960,145.203247 
	C195.676743,138.524612 196.365601,131.994949 197.105316,125.008118 
	C201.016785,126.820580 204.877380,129.090210 208.626465,131.915359 
	C208.334763,136.287491 208.154572,140.104126 207.974380,143.920746 
	C203.868271,144.397903 199.762146,144.875061 195.321960,145.203247 
z"/>
<path fill="#A4A6A9" opacity="1.000000" stroke="none" 
	d="
M367.049683,185.043488 
	C367.048798,189.356491 367.340271,193.212524 366.890747,196.980148 
	C366.729950,198.327850 364.778015,199.461868 363.643616,200.693420 
	C362.452362,199.520096 360.307007,198.404419 360.232025,197.163620 
	C359.871857,191.204529 360.146393,185.210281 360.038055,179.231354 
	C359.988464,176.494339 361.415375,175.414948 363.698303,176.078186 
	C364.992828,176.454269 366.478851,177.849762 366.906067,179.114609 
	C367.460358,180.755890 367.046661,182.724121 367.049683,185.043488 
z"/>
<path fill="#9C9EA0" opacity="1.000000" stroke="none" 
	d="
M280.243347,97.336334 
	C275.858459,101.748787 265.803497,102.188484 260.123322,98.216187 
	C251.777985,92.380051 248.621231,84.697380 251.499252,76.392899 
	C251.720154,82.542099 254.824417,86.668968 258.824097,90.647705 
	C264.902985,96.694748 272.350220,97.534554 280.243347,97.336334 
z"/>
<path fill="#2FAEDE" opacity="1.000000" stroke="none" 
	d="
M208.398254,143.956467 
	C208.154572,140.104126 208.334763,136.287491 208.832886,132.191376 
	C210.498657,132.076172 211.846512,132.240463 213.671616,132.846161 
	C215.083954,133.254288 216.019028,133.221024 216.954102,133.187744 
	C217.394760,133.222061 217.835403,133.256378 218.743500,133.725647 
	C222.418411,134.522079 225.625870,134.883575 228.833344,135.245056 
	C229.148575,135.584763 229.463821,135.924454 229.779068,136.264145 
	C228.164413,137.424530 226.549759,138.584915 224.935089,139.745285 
	C219.564087,141.160919 214.193115,142.576553 208.398254,143.956467 
z"/>
<path fill="#2FA6D6" opacity="1.000000" stroke="none" 
	d="
M230.438629,119.912216 
	C230.348373,115.221619 230.634888,110.637352 231.133209,106.076233 
	C231.216415,105.314552 232.219818,104.653397 233.247345,103.830460 
	C236.209869,105.495552 238.723068,107.275963 241.627884,109.413864 
	C242.349197,110.176773 242.678864,110.582184 243.006531,111.408287 
	C242.335709,114.443542 241.666885,117.058105 240.998062,119.672661 
	C237.627518,119.790543 234.256958,119.908424 230.438629,119.912216 
z"/>
<path fill="#595A5C" opacity="1.000000" stroke="none" 
	d="
M280.560822,97.216354 
	C272.350220,97.534554 264.902985,96.694748 258.824097,90.647705 
	C254.824417,86.668968 251.720154,82.542099 251.830048,76.207161 
	C252.043640,74.680298 252.366089,73.574547 252.964493,72.254456 
	C255.290237,77.049973 256.471344,82.696548 259.576477,86.932838 
	C265.451508,94.948021 273.996613,96.552391 284.749298,93.075928 
	C283.724609,94.425957 282.301453,95.761169 280.560822,97.216354 
z"/>
<path fill="#2FAEDE" opacity="1.000000" stroke="none" 
	d="
M241.399384,119.722321 
	C241.666885,117.058105 242.335709,114.443542 243.420135,111.392288 
	C244.379562,110.858688 244.923370,110.761772 245.467194,110.664856 
	C245.807449,110.686462 246.147720,110.708069 246.985901,111.121597 
	C249.106873,111.600891 250.729950,111.688278 252.353012,111.775665 
	C253.550339,111.753723 254.747681,111.731781 256.722168,111.831055 
	C259.301422,112.258224 261.103485,112.564163 262.905548,112.870110 
	C255.870605,115.170731 248.835648,117.471359 241.399384,119.722321 
z"/>
<path fill="#57C4EB" opacity="1.000000" stroke="none" 
	d="
M225.298309,139.702698 
	C226.549759,138.584915 228.164413,137.424530 229.779068,136.264145 
	C229.463821,135.924454 229.148575,135.584763 228.833344,135.245056 
	C225.625870,134.883575 222.418411,134.522079 219.060486,133.825577 
	C225.761353,133.019348 232.612686,132.548126 239.464020,132.076904 
	C239.635681,132.489426 239.807358,132.901947 239.979019,133.314453 
	C235.206512,135.429672 230.434021,137.544891 225.298309,139.702698 
z"/>
<path fill="#A4A6A9" opacity="1.000000" stroke="none" 
	d="
M365.994446,173.217712 
	C362.708008,174.667603 360.224243,173.895172 359.563477,170.731506 
	C359.317596,169.554291 360.826538,167.394272 362.091644,166.707932 
	C363.151215,166.133072 366.080750,166.685944 366.319885,167.380600 
	C366.890350,169.037918 366.360596,171.073959 365.994446,173.217712 
z"/>
<path fill="#424143" opacity="1.000000" stroke="none" 
	d="
M263.974915,83.650238 
	C258.646393,82.478592 258.874115,77.742157 257.992462,73.640594 
	C257.600037,71.814964 257.181854,69.994881 256.386414,68.085587 
	C257.067474,67.029434 258.137451,66.059998 259.507324,64.957336 
	C259.921295,66.136345 260.247101,67.470734 260.112457,68.756912 
	C259.551514,74.114670 260.192291,79.104904 263.974915,83.650238 
z"/>
<path fill="#57C4EB" opacity="1.000000" stroke="none" 
	d="
M263.265991,112.860420 
	C261.103485,112.564163 259.301422,112.258224 257.079651,111.870819 
	C260.503235,110.909920 264.346527,110.030479 268.189819,109.151039 
	C268.335999,109.569801 268.482208,109.988571 268.628387,110.407333 
	C266.961090,111.221802 265.293762,112.036263 263.265991,112.860420 
z"/>
<path fill="#424143" opacity="1.000000" stroke="none" 
	d="
M287.914551,87.034462 
	C285.070129,87.850441 282.225677,88.666428 279.185852,89.213898 
	C282.234528,86.725159 285.478607,84.504929 289.055420,82.158180 
	C289.384552,83.095039 289.380951,84.158432 288.992249,85.695808 
	C288.376282,86.458023 288.145416,86.746246 287.914551,87.034462 
z"/>
<path fill="#57C4EB" opacity="1.000000" stroke="none" 
	d="
M252.167038,111.496765 
	C250.729950,111.688278 249.106873,111.600891 247.229752,111.202003 
	C248.644150,110.999626 250.312607,111.108749 252.167038,111.496765 
z"/>
<path fill="#2A96C6" opacity="1.000000" stroke="none" 
	d="
M177.790909,76.649712 
	C177.295166,75.843979 176.828140,74.681183 176.595963,73.295502 
	C177.160416,74.145958 177.490005,75.219307 177.790909,76.649712 
z"/>
<path fill="#247DAE" opacity="1.000000" stroke="none" 
	d="
M135.229889,77.320435 
	C135.730576,77.822159 136.208328,78.649727 136.477829,79.683586 
	C135.915375,79.142014 135.561188,78.394150 135.229889,77.320435 
z"/>
<path fill="#2D9CCB" opacity="1.000000" stroke="none" 
	d="
M223.419922,83.700218 
	C222.895172,83.074898 222.485016,82.135468 222.124985,80.840652 
	C222.628235,81.452209 223.081375,82.419159 223.419922,83.700218 
z"/>
<path fill="#57C4EB" opacity="1.000000" stroke="none" 
	d="
M216.712036,132.960632 
	C216.019028,133.221024 215.083954,133.254288 214.020294,133.058517 
	C214.751129,132.797485 215.610550,132.765503 216.712036,132.960632 
z"/>
<path fill="#57C4EB" opacity="1.000000" stroke="none" 
	d="
M245.282043,110.376633 
	C244.923370,110.761772 244.379562,110.858688 243.422150,110.971588 
	C242.678864,110.582184 242.349197,110.176773 241.980347,109.502533 
	C242.993073,109.518600 244.044983,109.803505 245.282043,110.376633 
z"/>
<path fill="#2FAEDE" opacity="1.000000" stroke="none" 
	d="
M223.610641,118.507736 
	C224.183777,118.372238 224.936203,118.496544 225.836212,118.868866 
	C225.252502,119.000420 224.521225,118.883972 223.610641,118.507736 
z"/>
<path fill="#2D9CCB" opacity="1.000000" stroke="none" 
	d="
M214.187256,114.278580 
	C214.735992,114.356445 215.320145,114.715225 215.958710,115.347649 
	C215.416306,115.267357 214.819489,114.913422 214.187256,114.278580 
z"/>
<path fill="#78787A" opacity="1.000000" stroke="none" 
	d="
M287.965057,87.352890 
	C288.145416,86.746246 288.376282,86.458023 288.868927,86.077209 
	C289.009430,86.693085 288.888184,87.401550 288.524597,88.184204 
	C288.193390,88.062706 288.104462,87.867012 287.965057,87.352890 
z"/>
<path fill="#57C4EB" opacity="1.000000" stroke="none" 
	d="
M241.567978,131.450714 
	C241.613007,131.512131 241.522949,131.389313 241.567978,131.450714 
z"/>
<path fill="#F8F9F9" opacity="1.000000" stroke="none" 
	d="
M293.935974,185.795715 
	C292.327667,181.207718 296.092316,181.481079 298.422791,181.384064 
	C299.949158,181.320511 301.548492,183.010056 303.115143,183.914429 
	C302.981873,184.552643 302.848633,185.190872 302.715363,185.829102 
	C299.915527,185.829102 297.115662,185.829102 293.935974,185.795715 
z"/>
<path fill="#F8F9F9" opacity="1.000000" stroke="none" 
	d="
M120.958786,190.091064 
	C121.761925,187.297714 122.125977,184.218216 123.856941,182.609802 
	C124.967270,181.578079 129.031586,181.883591 130.088104,183.078415 
	C131.578644,184.764084 132.266022,187.959000 131.864075,190.258194 
	C131.559982,191.997665 129.263641,194.083282 127.413269,194.706482 
	C124.058701,195.836258 122.372467,193.126480 120.958786,190.091064 
z"/>
<path fill="#F8F9F9" opacity="1.000000" stroke="none" 
	d="
M228.468994,183.531052 
	C229.004181,184.615555 229.327698,185.380249 229.542755,186.174332 
	C230.456833,189.549759 229.934296,192.821609 226.512955,194.044098 
	C224.632370,194.716064 220.869370,194.240158 220.095917,192.973999 
	C218.765350,190.795883 218.205444,187.307709 218.973709,184.895386 
	C219.973343,181.756638 223.263336,181.129150 226.483536,182.262100 
	C227.095337,182.477341 227.634674,182.898560 228.468994,183.531052 
z"/>
<path fill="#F8F9F9" opacity="1.000000" stroke="none" 
	d="
M390.756989,190.366592 
	C389.045837,194.377518 386.404572,195.904388 382.648651,194.265900 
	C379.410217,192.853165 378.284546,188.690781 379.864105,185.245483 
	C381.401062,181.893005 384.127930,181.124481 387.303040,182.189484 
	C391.066010,183.451660 391.275726,186.654861 390.756989,190.366592 
z"/>
<path fill="#F8F9F9" opacity="1.000000" stroke="none" 
	d="
M48.325790,183.118195 
	C51.992336,181.151871 55.109531,180.979919 57.075039,184.792328 
	C58.778530,188.096512 58.601509,191.751953 55.325676,193.605133 
	C53.573364,194.596466 49.847458,194.302063 48.318535,193.024536 
	C45.182819,190.404419 44.998451,186.699432 48.325790,183.118195 
z"/>
<path fill="#F8F9F9" opacity="1.000000" stroke="none" 
	d="
M282.952820,73.654716 
	C278.877411,79.592331 273.561462,81.189575 270.992249,77.178764 
	C269.656891,75.094055 269.207092,71.311462 270.226715,69.197586 
	C271.080963,67.426552 274.737122,65.956223 276.995819,66.152985 
	C280.632263,66.469780 283.058594,69.151390 282.952820,73.654716 
z"/>
<path fill="#424143" opacity="1.000000" stroke="none" 
	d="
M270.145386,88.469635 
	C268.510498,87.768730 266.777252,86.747200 265.016235,85.373215 
	C266.674652,86.063515 268.360870,87.106262 270.145386,88.469635 
z"/>
</svg>